<svg xmlns="http://www.w3.org/2000/svg" viewBox="0 0 24 24">
  <symbol id="patternplate">
    <path d="M12 2c5.52 0 10 4.48 10 10s-4.48 10-10 10S2 17.52 2 12 6.48 2 12 2zm-2 15.5v-2H8v2h2zm3-3v-2h-2v2h2zm-3 0v-2H8v2h2zm6 0v-2h-2v2h2zm-6-3v-2H8v2h2zm6 0v-2h-2v2h2zm-3-3v-2h-2v2h2zm-3 0v-2H8v2h2zm6 0v-2h-2v2h2z"/>
  </symbol>
  <symbol id="home" viewBox="0 0 24 24">
    <path fill-rule="nonzero" d="M12.056 2l-11 10h1.89v9.02c0 .524.422.95.943.95h7.22V18.2H13v3.77l7.104.03h.008c.52 0 .944-.424.944-.95v-9.01l1.89-.04-10.89-10zm-.005 2.032l7.51 6.892v9.574l-5.05-.023V16.7H9.62v3.77H4.45v-9.525l7.6-6.915"/>
  </symbol>
  <symbol id="globals" viewBox="0 0 24 24">
    <path fill-rule="nonzero" d="M12 20.5c-3.046 0-5.716-1.616-7.217-4.03l.16.065 1.75-4.25c.08-.196.075-.416-.015-.607l-1.936-4.08c.595-.977 1.38-1.824 2.305-2.49L8.25 6.31V9c0 .116.028.23.08.335l3 6c.1.2.282.343.498.394.057.01.115.02.172.02.16 0 .32-.06.45-.15l4-3c.167-.13.275-.32.296-.53l.283-2.75 2.83-.544c.4.99.63 2.074.63 3.21 0 4.687-3.817 8.5-8.5 8.5M3.92 9.37l1.258 2.65-1.172 2.848C3.686 13.97 3.5 13.008 3.5 12c0-.92.15-1.802.422-2.63M19.138 7.4l-2.94.564c-.324.06-.57.33-.604.66l-.306 2.972-3.02 2.264L9.75 8.823V6c0-.2-.08-.39-.22-.53L8.38 4.32c1.1-.52 2.325-.82 3.62-.82 2.992 0 5.623 1.558 7.138 3.9M12 2C6.48 2 2 6.48 2 12s4.48 10 10 10 10-4.48 10-10S17.52 2 12 2"/>
  </symbol>
  <symbol id="atoms" viewBox="0 0 24 24">
    <path fill-rule="nonzero" d="M12 3c-1.39 0-2.7.324-3.874.886.355.357.608.807.75 1.305.952-.43 2.008-.69 3.124-.69 4.135 0 7.5 3.37 7.5 7.5s-3.365 7.5-7.5 7.5-7.5-3.36-7.5-7.5c0-1.11.252-2.17.69-3.12-.497-.14-.947-.39-1.304-.75C3.324 9.3 3 10.61 3 12c0 4.97 4.03 9 9 9s9-4.03 9-9-4.03-9-9-9"/>
    <path fill-rule="nonzero" d="M13.5 12c0-.828-.672-1.5-1.5-1.5s-1.5.672-1.5 1.5.672 1.5 1.5 1.5 1.5-.672 1.5-1.5M6 7.5c.828 0 1.5-.672 1.5-1.5S6.828 4.5 6 4.5 4.5 5.172 4.5 6 5.172 7.5 6 7.5"/>
  </symbol>
  <symbol id="molecules" viewBox="0 0 24 24">
    <path fill-rule="nonzero" d="M6.372 4.75h11.255v1.5H6.372zM12.9 16.172c.32.124.617.31.868.56.12.12.222.248.312.383l5.626-9.143c-.514-.06-.99-.274-1.377-.624l-5.43 8.824zM6.08 6.886c-.09.135-.193.263-.312.382-.25.25-.548.437-.87.56l5.43 8.825c.388-.35.864-.564 1.378-.624L6.08 6.88zm4.86 10.554c-.587.586-.587 1.536 0 2.12.585.587 1.535.587 2.12 0 .586-.584.586-1.534 0-2.12-.585-.586-1.535-.586-2.12 0m10.12-13c-.585-.586-1.535-.586-2.12 0-.586.586-.586 1.536 0 2.12.585.587 1.535.587 2.12 0 .587-.584.587-1.534 0-2.12m-16 0c-.585-.586-1.535-.586-2.12 0-.586.586-.586 1.536 0 2.12.585.587 1.535.587 2.12 0 .587-.584.587-1.534 0-2.12"/>
  </symbol>
  <symbol id="modules" viewBox="0 0 24 24">
    <path fill-rule="nonzero" d="M6.475 15.75c.008.084.025.165.025.25 0 .48-.142.922-.376 1.302l3.766 2.37c.287-.455.715-.808 1.224-1.002l-4.64-2.92zm11.05-.004l-4.64 2.923c.51.19.937.54 1.225 1l3.765-2.37c-.233-.38-.375-.83-.375-1.3 0-.09.017-.17.026-.26m2.454-5.25c-.564-.008-1.078-.207-1.495-.528l-.032 4.08c.417-.33.934-.54 1.505-.55l.023-3.005zm-15.973.01l.008 3c.567 0 1.083.2 1.5.52l-.01-4.04c-.418.32-.933.514-1.498.515m13.515-2.28c-.007-.08-.022-.15-.022-.22 0-.49.145-.94.386-1.32l-3.773-2.36c-.285.45-.71.81-1.22 1l4.63 2.893zm-11.046.01l4.635-2.91c-.5-.194-.93-.548-1.22-1.003L6.12 6.69c.237.383.38.83.38 1.31 0 .082-.016.16-.024.238m11.064.152l-4.79 2.392v-5.41c-.238.076-.486.127-.75.127-.262 0-.51-.06-.75-.13v5.44l-4.79-2.4c-.088.51-.327.98-.68 1.34l4.512 2.26-4.502 2.24c.35.36.58.82.67 1.34l4.79-2.397v5.42c.24-.074.48-.127.75-.127s.51.05.75.126v-5.38l4.78 2.394c.077-.516.31-.983.653-1.35l-4.543-2.27 4.56-2.27c-.35-.36-.584-.827-.666-1.343M4 9.5c.828 0 1.5-.672 1.5-1.5S4.828 6.5 4 6.5 2.5 7.172 2.5 8 3.172 9.5 4 9.5m8-5c.828 0 1.5-.672 1.5-1.5s-.672-1.5-1.5-1.5-1.5.672-1.5 1.5.672 1.5 1.5 1.5m-8 10c-.828 0-1.5.672-1.5 1.5s.672 1.5 1.5 1.5 1.5-.672 1.5-1.5-.672-1.5-1.5-1.5m8 5c-.828 0-1.5.672-1.5 1.5s.672 1.5 1.5 1.5 1.5-.672 1.5-1.5-.672-1.5-1.5-1.5m8-5c-.828 0-1.5.672-1.5 1.5s.672 1.5 1.5 1.5 1.5-.672 1.5-1.5-.672-1.5-1.5-1.5m0-5c.828 0 1.5-.672 1.5-1.5s-.672-1.5-1.5-1.5-1.5.672-1.5 1.5.672 1.5 1.5 1.5"/>
  </symbol>
  <symbol id="pages" viewBox="0 0 24 24">
    <path fill-rule="nonzero" d="M18.375 16.625h-9v-13h9v13zm-10.5-14.5v15c0 .552.447 1 1 1h11v-16h-12z"/>
    <path fill-rule="nonzero" d="M14.125 20.375h-8.25c-.137 0-.25-.112-.25-.25V6.875h1.25v-1.5h-2.75v14.75c0 .965.786 1.75 1.75 1.75h9.75v-2.75h-1.5v1.25z"/>
  </symbol>
</svg>
